<svg xmlns="http://www.w3.org/2000/svg" fill="none" viewBox="0 0 128 128"><g id="rain__rain" clip-path="url(#rain__clip0_2045_39587)"><g id="rain__Sky"><g id="rain__Clouds"><g id="rain__Cloud"><path id="rain__Cloud_2" fill="#e6effc" d="M90.389 63.086c2.295-9.204-2.648-18.95-11.38-22.604-8.744-3.658-19.181-.344-24.172 7.73-4.3-2.587-9.862-2.434-14.013.387-4.14 2.814-6.324 7.915-5.474 12.855-6.957 1.315-11.957 7.885-11.289 14.954S30.871 89.002 37.953 89h53.024C98.045 89 104 83.119 104 76.028c0-7.327-6.323-13.26-13.611-12.942"/></g></g></g><g id="rain__Precipitation"><g id="rain__Raindrops"><path id="rain__Raindrop 1" stroke="#0a5ad4" stroke-linecap="round" stroke-width="4" d="M52 83v12" transform="translate(0 8)"/><path id="rain__Raindrop 2" stroke="#0a5ad4" stroke-linecap="round" stroke-width="4" d="M64 83v12"/><path id="rain__Raindrop 3" stroke="#0a5ad4" stroke-linecap="round" stroke-width="4" d="M76 83v12" transform="translate(0 8)"/></g></g></g><defs><clipPath id="rain__clip0_2045_39587"><rect width="128" height="128" fill="#fff"/></clipPath></defs></svg>